<svg width="229" height="18" viewBox="0 0 229 18" fill="none" xmlns="http://www.w3.org/2000/svg">
<path d="M6.534 16.216C5.478 16.216 4.548 15.928 3.744 15.352C2.94 14.776 2.316 13.966 1.872 12.922C1.428 11.866 1.206 10.654 1.206 9.286C1.206 7.918 1.428 6.712 1.872 5.668C2.316 4.624 2.934 3.814 3.726 3.238C4.53 2.662 5.46 2.374 6.516 2.374C7.572 2.374 8.502 2.662 9.306 3.238C10.11 3.814 10.734 4.624 11.178 5.668C11.622 6.712 11.844 7.918 11.844 9.286C11.844 10.654 11.622 11.866 11.178 12.922C10.734 13.966 10.11 14.776 9.306 15.352C8.514 15.928 7.59 16.216 6.534 16.216ZM2.97 9.286C2.97 10.342 3.114 11.272 3.402 12.076C3.702 12.868 4.122 13.486 4.662 13.93C5.202 14.362 5.826 14.578 6.534 14.578C7.242 14.578 7.86 14.362 8.388 13.93C8.928 13.486 9.342 12.868 9.63 12.076C9.93 11.272 10.08 10.342 10.08 9.286C10.08 8.23 9.93 7.306 9.63 6.514C9.342 5.722 8.928 5.11 8.388 4.678C7.848 4.234 7.224 4.012 6.516 4.012C5.808 4.012 5.184 4.234 4.644 4.678C4.116 5.11 3.702 5.722 3.402 6.514C3.114 7.306 2.97 8.23 2.97 9.286ZM17.1294 4.12H14.5914V2.59H18.9114V16H17.1294V4.12Z" fill="#000420"/>
<line x1="37" y1="8" x2="187" y2="8" stroke="#404252"/>
<line x1="37" y1="8" x2="128" y2="8" stroke="#000420" stroke-width="3"/>
<path d="M209.534 16.216C208.478 16.216 207.548 15.928 206.744 15.352C205.94 14.776 205.316 13.966 204.872 12.922C204.428 11.866 204.206 10.654 204.206 9.286C204.206 7.918 204.428 6.712 204.872 5.668C205.316 4.624 205.934 3.814 206.726 3.238C207.53 2.662 208.46 2.374 209.516 2.374C210.572 2.374 211.502 2.662 212.306 3.238C213.11 3.814 213.734 4.624 214.178 5.668C214.622 6.712 214.844 7.918 214.844 9.286C214.844 10.654 214.622 11.866 214.178 12.922C213.734 13.966 213.11 14.776 212.306 15.352C211.514 15.928 210.59 16.216 209.534 16.216ZM205.97 9.286C205.97 10.342 206.114 11.272 206.402 12.076C206.702 12.868 207.122 13.486 207.662 13.93C208.202 14.362 208.826 14.578 209.534 14.578C210.242 14.578 210.86 14.362 211.388 13.93C211.928 13.486 212.342 12.868 212.63 12.076C212.93 11.272 213.08 10.342 213.08 9.286C213.08 8.23 212.93 7.306 212.63 6.514C212.342 5.722 211.928 5.11 211.388 4.678C210.848 4.234 210.224 4.012 209.516 4.012C208.808 4.012 208.184 4.234 207.644 4.678C207.116 5.11 206.702 5.722 206.402 6.514C206.114 7.306 205.97 8.23 205.97 9.286ZM224.287 12.904H217.699V11.446L224.251 2.59H225.943V11.446H227.689V12.904H225.943V16H224.287V12.904ZM224.287 11.446V4.912L219.499 11.446H224.287Z" fill="#000420"/>
</svg>
