<svg width="229" height="19" viewBox="0 0 229 19" fill="none" xmlns="http://www.w3.org/2000/svg">
<path d="M6.534 16.716C5.478 16.716 4.548 16.428 3.744 15.852C2.94 15.276 2.316 14.466 1.872 13.422C1.428 12.366 1.206 11.154 1.206 9.786C1.206 8.418 1.428 7.212 1.872 6.168C2.316 5.124 2.934 4.314 3.726 3.738C4.53 3.162 5.46 2.874 6.516 2.874C7.572 2.874 8.502 3.162 9.306 3.738C10.11 4.314 10.734 5.124 11.178 6.168C11.622 7.212 11.844 8.418 11.844 9.786C11.844 11.154 11.622 12.366 11.178 13.422C10.734 14.466 10.11 15.276 9.306 15.852C8.514 16.428 7.59 16.716 6.534 16.716ZM2.97 9.786C2.97 10.842 3.114 11.772 3.402 12.576C3.702 13.368 4.122 13.986 4.662 14.43C5.202 14.862 5.826 15.078 6.534 15.078C7.242 15.078 7.86 14.862 8.388 14.43C8.928 13.986 9.342 13.368 9.63 12.576C9.93 11.772 10.08 10.842 10.08 9.786C10.08 8.73 9.93 7.806 9.63 7.014C9.342 6.222 8.928 5.61 8.388 5.178C7.848 4.734 7.224 4.512 6.516 4.512C5.808 4.512 5.184 4.734 4.644 5.178C4.116 5.61 3.702 6.222 3.402 7.014C3.114 7.806 2.97 8.73 2.97 9.786ZM17.1294 4.62H14.5914V3.09H18.9114V16.5H17.1294V4.62Z" fill="white"/>
<line x1="37" y1="8.5" x2="187" y2="8.5" stroke="#ECEDF0"/>
<line x1="37" y1="8.5" x2="128" y2="8.5" stroke="#0DD0BD" stroke-width="3"/>
<path d="M209.534 16.716C208.478 16.716 207.548 16.428 206.744 15.852C205.94 15.276 205.316 14.466 204.872 13.422C204.428 12.366 204.206 11.154 204.206 9.786C204.206 8.418 204.428 7.212 204.872 6.168C205.316 5.124 205.934 4.314 206.726 3.738C207.53 3.162 208.46 2.874 209.516 2.874C210.572 2.874 211.502 3.162 212.306 3.738C213.11 4.314 213.734 5.124 214.178 6.168C214.622 7.212 214.844 8.418 214.844 9.786C214.844 11.154 214.622 12.366 214.178 13.422C213.734 14.466 213.11 15.276 212.306 15.852C211.514 16.428 210.59 16.716 209.534 16.716ZM205.97 9.786C205.97 10.842 206.114 11.772 206.402 12.576C206.702 13.368 207.122 13.986 207.662 14.43C208.202 14.862 208.826 15.078 209.534 15.078C210.242 15.078 210.86 14.862 211.388 14.43C211.928 13.986 212.342 13.368 212.63 12.576C212.93 11.772 213.08 10.842 213.08 9.786C213.08 8.73 212.93 7.806 212.63 7.014C212.342 6.222 211.928 5.61 211.388 5.178C210.848 4.734 210.224 4.512 209.516 4.512C208.808 4.512 208.184 4.734 207.644 5.178C207.116 5.61 206.702 6.222 206.402 7.014C206.114 7.806 205.97 8.73 205.97 9.786ZM224.287 13.404H217.699V11.946L224.251 3.09H225.943V11.946H227.689V13.404H225.943V16.5H224.287V13.404ZM224.287 11.946V5.412L219.499 11.946H224.287Z" fill="white"/>
</svg>
